<svg data-v-423bf9ae="" xmlns="http://www.w3.org/2000/svg" viewBox="0 0 514 91" class="iconLeft"><!----><!----><!----><g data-v-423bf9ae="" id="54d932e1-8f9a-47dc-b710-ee386246050f" fill="#4F373A" transform="matrix(5.576208059824095,0,0,5.576208059824095,110.05062012907933,-1.840149664822519)"><path d="M8.27 7.94C8.08 6.64 7.17 5.91 5.63 5.91C4.94 5.91 4.41 6.06 3.95 6.34L3.28 7.27L3.28 6.10L0.76 6.10L0.76 13.58L3.28 13.58L3.28 10.05C3.28 8.36 3.82 7.62 4.59 7.62C5.35 7.62 5.74 8.04 5.80 8.75C5.82 9.13 5.82 9.53 5.82 9.77L5.82 13.58L8.34 13.58L8.34 9.35C8.34 8.75 8.33 8.32 8.27 7.94ZM14.15 13.58L16.62 13.58C16.51 12.75 16.48 12.25 16.48 11.69L16.48 9.59C16.48 9.13 16.46 8.69 16.44 8.32C16.32 6.96 15.51 5.91 13.15 5.91C11.26 5.91 9.70 6.90 9.69 8.65L12.07 8.64C12.11 7.99 12.45 7.62 13.03 7.62C13.58 7.62 13.89 7.95 13.93 8.33C13.96 8.57 13.96 8.72 13.96 8.88L13.96 8.99L13.48 8.99C10.95 8.99 9.44 9.97 9.44 11.56C9.44 13.01 10.60 13.78 11.83 13.78C12.52 13.78 13.15 13.61 13.68 13.27L13.99 12.49ZM12.87 12.07C12.36 12.07 12.01 11.82 12.01 11.37C12.01 10.63 12.82 10.33 13.96 10.42L13.96 10.91C13.96 11.69 13.37 12.07 12.87 12.07ZM21.01 7.73L22.67 7.73L22.67 6.16L21.01 6.16L21.01 4.23L18.49 4.23L18.49 6.16L17.30 6.16L17.30 7.73L18.49 7.73L18.49 10.85C18.49 11.27 18.49 11.62 18.52 12.05C18.61 13.20 19.17 13.78 21.03 13.78C21.56 13.78 22.02 13.73 22.51 13.65L22.51 12.08C21.32 12.14 21.08 11.97 21.03 11.21C21.01 11.02 21.01 10.74 21.01 10.49ZM26.43 5.54C26.50 4.89 27.16 4.62 28.07 4.77L28.07 3.14C27.82 3.07 27.52 3.02 27.23 3.02C24.92 3.02 24.02 3.89 23.91 5.29C23.90 5.54 23.90 5.88 23.90 6.10L23.90 6.16L23.10 6.16L23.10 7.73L23.90 7.73L23.90 13.58L26.42 13.58L26.42 7.73L27.94 7.73L27.94 6.16L26.42 6.16L26.42 6.10C26.42 5.92 26.42 5.74 26.43 5.54ZM32.48 5.91C30.03 5.91 28.46 7.43 28.46 9.84C28.46 12.24 30.03 13.78 32.48 13.78C34.93 13.78 36.50 12.24 36.50 9.84C36.50 7.43 34.93 5.91 32.48 5.91ZM32.48 12.07C31.58 12.07 31.04 11.33 31.04 9.84C31.04 8.34 31.58 7.62 32.48 7.62C33.38 7.62 33.92 8.34 33.92 9.84C33.92 11.33 33.38 12.07 32.48 12.07ZM42.11 5.91C41.64 5.91 41.05 6.12 40.64 6.57L40.11 7.62L40.11 6.10L37.59 6.10L37.59 13.58L40.11 13.58L40.11 10.84C40.11 8.58 40.80 7.88 42.69 8.01L42.69 5.95C42.50 5.92 42.35 5.91 42.11 5.91ZM50.92 6.10L48.40 6.10L48.40 10.33C48.40 11.33 47.92 12.07 47.12 12.07C46.33 12.07 45.99 11.65 45.91 10.93C45.86 10.56 45.85 10.15 45.85 9.91L45.85 6.10L43.33 6.10L43.33 10.47C43.33 11.07 43.34 11.51 43.40 11.89C43.57 12.91 44.51 13.78 46.05 13.78C46.73 13.78 47.26 13.62 47.73 13.34L48.40 12.32L48.40 13.58L50.92 13.58ZM64.46 7.80C64.29 6.78 63.45 5.91 61.95 5.91C61.26 5.91 60.80 6.06 60.34 6.34L59.56 7.36C59.23 6.54 58.44 5.91 57.16 5.91C56.48 5.91 56.01 6.06 55.55 6.34L54.95 7.31L54.95 6.10L52.43 6.10L52.43 13.58L54.95 13.58L54.95 9.63C54.95 8.36 55.27 7.62 56.08 7.62C56.74 7.62 57.08 8.04 57.16 8.75C57.20 9.13 57.22 9.53 57.22 9.77L57.22 13.58L59.74 13.58L59.74 9.63C59.74 8.36 60.06 7.62 60.87 7.62C61.53 7.62 61.87 8.04 61.95 8.75C61.99 9.13 62.01 9.53 62.01 9.77L62.01 13.58L64.53 13.58L64.53 9.21C64.53 8.61 64.51 8.18 64.46 7.80ZM69.03 5.91C67.05 5.91 65.76 6.83 65.76 8.32C65.76 9.59 66.61 10.25 68.04 10.58C69.37 10.89 69.85 11.16 69.85 11.63C69.85 12.03 69.50 12.21 69.05 12.21C68.52 12.21 68.07 11.83 67.93 11.26L65.45 11.26C65.65 12.94 67.03 13.78 69.06 13.78C70.87 13.78 72.37 13.03 72.37 11.44C72.37 10.00 71.40 9.41 70.04 9.07C68.61 8.72 68.28 8.44 68.28 8.02C68.28 7.70 68.53 7.48 68.88 7.48C69.33 7.48 69.58 7.77 69.69 8.29L72.17 8.29C71.97 6.93 70.90 5.91 69.03 5.91Z"></path></g><defs data-v-423bf9ae=""><linearGradient data-v-423bf9ae="" gradientTransform="rotate(25)" id="f8c69972-030a-416e-a3de-0c917ea4e8e8" x1="0%" y1="0%" x2="100%" y2="0%"><stop data-v-423bf9ae="" offset="0%" style="stop-color: rgb(216, 143, 154); stop-opacity: 1;"></stop><stop data-v-423bf9ae="" offset="100%" style="stop-color: rgb(240, 235, 203); stop-opacity: 1;"></stop></linearGradient></defs><g data-v-423bf9ae="" id="15217d35-9a4d-4493-90cc-c933c15f6854" transform="matrix(1.0466926045871416,0,0,1.0466926045871416,-4.372166383079048,-9.42844041321176)" stroke="none" fill="url(#f8c69972-030a-416e-a3de-0c917ea4e8e8)"><path d="M94.071 15.294c-2.313-5.2-8.404-7.539-13.603-5.226-5.2 2.313-7.539 8.404-5.226 13.603.227.509.499.983.794 1.435l-27.545 24.37a11.418 11.418 0 0 0-4.023-2.27l1.12-6.317a6.463 6.463 0 0 0 3.451-1.229 6.5 6.5 0 1 0-9.08-1.43 6.46 6.46 0 0 0 2.675 2.134l-1.123 6.331c-.166-.007-.33-.025-.498-.025-2.266 0-4.374.671-6.152 1.813l-17.78-21.062a6.872 6.872 0 1 0-6.001 2.499 6.828 6.828 0 0 0 3.639-.647l17.854 21.148a11.367 11.367 0 0 0-2.984 7.672c0 .317.022.628.047.938l-11.701 2.543a5.606 5.606 0 0 0-3.374-2.775 5.623 5.623 0 1 0 3.79 6.991c.127-.428.195-.858.219-1.285l11.707-2.545a11.473 11.473 0 0 0 5.094 6.053L30.592 79.8a7.72 7.72 0 0 0-5.634 1.068 7.754 7.754 0 1 0 10.706 2.371 7.71 7.71 0 0 0-2.291-2.314l4.779-11.784a11.36 11.36 0 0 0 2.862.377c3.53 0 6.69-1.61 8.787-4.133l11.525 7.239a10.418 10.418 0 0 0-.218 7.94c2.048 5.399 8.085 8.116 13.484 6.068 5.399-2.048 8.116-8.085 6.068-13.484-2.048-5.399-8.085-8.116-13.484-6.068a10.407 10.407 0 0 0-4.255 3.002l-11.528-7.241a11.362 11.362 0 0 0-.905-11.127l27.535-24.36c2.923 2.459 7.098 3.2 10.822 1.543 5.2-2.313 7.539-8.403 5.226-13.603zM41.014 66.519c-4.646 0-8.425-3.779-8.425-8.425s3.779-8.424 8.425-8.424 8.425 3.779 8.425 8.424-3.78 8.425-8.425 8.425z"></path></g><!----></svg>